<svg xmlns="http://www.w3.org/2000/svg" viewBox="0 0 512.007 512.007"><path d="M497.616 198.619c-3.763-6.922-11.953-10.196-19.425-7.774a79.442 79.442 0 0 0-4.783 1.722c-6.724-39.562-37.261-62.027-60.75-71.402-4.211-12.03-2.819-25.419 4.186-40.004 9.54 8.075 21.316 21.813 23.037 41.327.799 9.016 8.741 15.698 17.757 14.882 9.016-.799 15.681-8.741 14.882-17.757-4.544-51.452-51.629-75.465-53.635-76.459a16.366 16.366 0 0 0-20.819 5.387 153.26 153.26 0 0 0-4.524 7.002c-14.115-20.503-38.669-37.671-79.096-38.594-8.839.035-16.426 6.824-16.745 15.769-1.58 42.755 16.559 74.427 49.748 86.869 8.475 3.177 17.908-1.109 21.094-9.584 3.177-8.475-1.118-17.917-9.584-21.094-17.846-6.691-25.14-21.813-27.563-37.165 41.802 9.315 45.715 47.187 46.069 55.595a74.752 74.752 0 0 0 3.876 23.537c-20.348 51.721.832 82.884 15.546 97.009 6.505 6.265 16.887 6.061 23.153-.47 6.274-6.522 6.052-16.887-.47-23.153-12.894-12.388-16.799-28.903-11.705-49.233 14.705 7.72 35.45 24.476 34.036 57.262-9.76 8.832-18.565 20.219-23.941 34.325-4.724-1.232-9.936-.36-14.098 2.824-27.474 21.049-41.628 45.107-42.09 71.508-.16 9.052 7.037 16.506 16.089 16.666h.293c8.91 0 16.213-7.135 16.373-16.089.204-11.785 5.679-23.357 16.284-34.529 10.484 18.662 11.345 36.345 2.561 52.785-26.002-.131-47.93 9.798-63.442 29.099-25.857-5.93-48.347-3.629-66.959 6.875-18.748 10.577-32.255 28.881-40.26 54.431-9.326 2.053-25.908 3.928-40.84-3.547-10.347-5.191-18.671-14.332-24.83-27.27 18.751-2.786 33.659.958 44.362 11.252 6.522 6.256 16.887 6.07 23.161-.461 6.265-6.522 6.061-16.887-.461-23.161-14.518-13.949-40.229-27.625-82.007-18.091-15.517-19.319-37.455-29.26-63.464-29.13-7.518-14.073-7.969-29.057-1.366-44.785l.014-.035a78.021 78.021 0 0 1 3.914-7.961c10.605 11.172 16.08 22.744 16.284 34.529.16 8.945 7.463 16.089 16.373 16.089h.293c9.043-.16 16.248-7.614 16.089-16.666-.461-26.4-14.616-50.458-42.09-71.508-4.159-3.177-9.367-4.044-14.089-2.816-5.375-14.104-14.176-25.49-23.933-34.321-1.445-32.872 19.203-49.588 34.029-57.31 5.12 20.348 1.207 36.881-11.696 49.269-6.531 6.265-6.744 16.63-.47 23.153 6.265 6.54 16.648 6.735 23.153.47 14.716-14.118 35.899-45.295 15.538-97.029a74.688 74.688 0 0 0 3.871-23.637c.305-7.337 3.926-46.017 46.073-55.475-2.423 15.361-9.717 30.465-27.563 37.156-8.466 3.177-12.761 12.619-9.584 21.094 3.177 8.475 12.619 12.743 21.094 9.584 33.189-12.442 51.328-44.113 49.748-86.869-.319-8.945-7.916-15.663-16.745-15.769-40.431.928-64.988 18.099-79.105 38.603a153.562 153.562 0 0 0-4.524-7.002 16.39 16.39 0 0 0-20.819-5.387c-2.006.994-49.091 25.007-53.635 76.459-.799 9.016 5.866 16.958 14.882 17.757 8.856.763 16.958-5.857 17.757-14.882 1.704-19.275 13.524-33.074 23.09-41.229 6.958 14.552 8.338 27.909 4.131 39.914-23.488 9.381-54.014 31.847-60.732 71.405a78.937 78.937 0 0 0-4.79-1.723c-7.463-2.423-15.663.852-19.425 7.774-31.317 57.708-4.517 92.761 14.243 108.521a16.376 16.376 0 0 0 10.534 3.834c4.668 0 9.309-1.988 12.557-5.848 5.813-6.94 4.907-17.269-2.014-23.09-11.128-9.336-23.614-24.723-12.894-53.892a76.266 76.266 0 0 1 5.671 3.716 16.436 16.436 0 0 0 3.859 2.989c11.47 9.542 22.499 25.095 20.021 48.919-9.861 24.274-7.405 45.177-1.303 61.197a153.468 153.468 0 0 0-5.335 1.649c-7.854 2.609-12.548 10.667-10.906 18.778.532 2.636 13.675 64.612 76.663 75.137.914.142 1.819.222 2.715.222 7.862 0 14.802-5.679 16.133-13.693 1.491-8.919-4.544-17.367-13.471-18.857-25.202-4.197-38.256-21.679-44.592-34.636a86.91 86.91 0 0 1 4.645-.67c.383-.025.766-.065 1.149-.117 21.402-2.172 37.518 5.049 48.075 21.636 9.051 29.846 24.989 50.6 47.402 61.689 9.977 4.941 20.132 7.339 29.606 8.228a141.424 141.424 0 0 0-3.613 8.296c-3.337 8.404.772 17.926 9.176 21.271a16.311 16.311 0 0 0 6.043 1.162c6.514 0 12.681-3.913 15.237-10.329 3.136-7.908 8.176-16.675 11.926-21.6 3.957 4.967 8.891 13.582 12.096 21.591 2.556 6.425 8.723 10.338 15.237 10.338 2.014 0 4.055-.373 6.052-1.154 8.404-3.337 12.513-12.867 9.176-21.271-3.45-8.686-11.342-25.884-23.211-36.569 5.443-15.257 13.432-25.922 23.814-31.788 9.593-5.422 21.626-7.046 35.905-4.925-7.392 15.485-17.881 25.531-31.317 29.941-8.599 2.822-13.276 12.078-10.454 20.677 2.813 8.59 12.042 13.258 20.677 10.454 19.308-6.343 44.878-22.974 57.953-65.996 10.582-16.633 26.775-23.847 48.223-21.635.328.042.655.079.984.1 1.528.177 3.082.4 4.663.671-6.336 12.983-19.381 30.429-44.583 34.636-8.927 1.491-14.962 9.939-13.471 18.857 1.34 8.013 8.28 13.693 16.142 13.693.896 0 1.801-.08 2.707-.222 62.988-10.525 76.131-72.501 76.663-75.137 1.642-8.111-3.044-16.169-10.906-18.778a155.452 155.452 0 0 0-5.332-1.647c6.101-16.014 8.556-36.908-1.295-61.173-2.489-23.76 8.368-39.276 19.806-48.831a16.491 16.491 0 0 0 4.177-3.226 75.251 75.251 0 0 1 5.557-3.611c10.738 29.187-1.757 44.575-12.885 53.919-6.931 5.83-7.827 16.16-2.014 23.09a16.376 16.376 0 0 0 12.557 5.839c3.718 0 7.454-1.26 10.534-3.843 18.752-15.762 45.543-50.806 14.235-108.523z" fill="#FFFFFF"/></svg>